HIERARCHY
ROOT Hips
{
	OFFSET 0.00000 0.00000 0.00000
	CHANNELS 6 Xposition Yposition Zposition Zrotation Yrotation Xrotation 
	JOINT LHipJoint
	{
		OFFSET 0 0 0
		CHANNELS 3 Zrotation Yrotation Xrotation
		JOINT LeftUpLeg
		{
			OFFSET 1.85590 -1.73949 0.84976
			CHANNELS 3 Zrotation Yrotation Xrotation
			JOINT LeftLeg
			{
				OFFSET 2.36836 -6.50702 0.00000
				CHANNELS 3 Zrotation Yrotation Xrotation
				JOINT LeftFoot
				{
					OFFSET 2.53268 -6.95849 0.00000
					CHANNELS 3 Zrotation Yrotation Xrotation
					JOINT LeftToeBase
					{
						OFFSET 0.15935 -0.43781 1.94506
						CHANNELS 3 Zrotation Yrotation Xrotation
						End Site
						{
							OFFSET 0.00000 -0.00000 1.00661
						}
					}
				}
			}
		}
	}
	JOINT RHipJoint
	{
		OFFSET 0 0 0
		CHANNELS 3 Zrotation Yrotation Xrotation
		JOINT RightUpLeg
		{
			OFFSET -1.68297 -1.73949 0.84976
			CHANNELS 3 Zrotation Yrotation Xrotation
			JOINT RightLeg
			{
				OFFSET -2.44709 -6.72334 0.00000
				CHANNELS 3 Zrotation Yrotation Xrotation
				JOINT RightFoot
				{
					OFFSET -2.43843 -6.69953 0.00000
					CHANNELS 3 Zrotation Yrotation Xrotation
					JOINT RightToeBase
					{
						OFFSET -0.20854 -0.57295 2.02172
						CHANNELS 3 Zrotation Yrotation Xrotation
						End Site
						{
							OFFSET -0.00000 -0.00000 1.05594
						}
					}
				}
			}
		}
	}
	JOINT LowerBack
	{
		OFFSET 0 0 0
		CHANNELS 3 Zrotation Yrotation Xrotation
		JOINT Spine
		{
			OFFSET -0.01560 2.23971 -0.03712
			CHANNELS 3 Zrotation Yrotation Xrotation
			JOINT Spine1
			{
				OFFSET 0.05490 2.19225 -0.19086
				CHANNELS 3 Zrotation Yrotation Xrotation
				JOINT Neck
				{
					OFFSET 0 0 0
					CHANNELS 3 Zrotation Yrotation Xrotation
					JOINT Neck1
					{
						OFFSET -0.12403 1.43168 0.27585
						CHANNELS 3 Zrotation Yrotation Xrotation
						JOINT Head
						{
							OFFSET 0.17855 1.46173 -0.32578
							CHANNELS 3 Zrotation Yrotation Xrotation
							End Site
							{
								OFFSET 0.07217 1.51590 -0.14537
							}
						}
					}
				}
				JOINT LeftShoulder
				{
					OFFSET 0 0 0
					CHANNELS 3 Zrotation Yrotation Xrotation
					JOINT LeftArm
					{
						OFFSET 3.27650 0.85634 0.05396
						CHANNELS 3 Zrotation Yrotation Xrotation
						JOINT LeftForeArm
						{
							OFFSET 4.96755 -0.00000 0.00000
							CHANNELS 3 Zrotation Yrotation Xrotation
							JOINT LeftHand
							{
								OFFSET 3.35751 -0.00000 0.00000
								CHANNELS 3 Zrotation Yrotation Xrotation
								JOINT LeftFingerBase
								{
									OFFSET 0 0 0
									CHANNELS 3 Zrotation Yrotation Xrotation
									JOINT LeftHandIndex1
									{
										OFFSET 0.79697 -0.00000 0.00000
										CHANNELS 3 Zrotation Yrotation Xrotation
										End Site
										{
											OFFSET 0.64254 -0.00000 0.00000
										}
									}
								}
								JOINT LThumb
								{
									OFFSET 0 0 0
									CHANNELS 3 Zrotation Yrotation Xrotation
									End Site
									{
										OFFSET 0.65235 -0.00000 0.65235
									}
								}
							}
						}
					}
				}
				JOINT RightShoulder
				{
					OFFSET 0 0 0
					CHANNELS 3 Zrotation Yrotation Xrotation
					JOINT RightArm
					{
						OFFSET -3.24434 1.02034 0.34688
						CHANNELS 3 Zrotation Yrotation Xrotation
						JOINT RightForeArm
						{
							OFFSET -5.21859 -0.00000 -0.00000
							CHANNELS 3 Zrotation Yrotation Xrotation
							JOINT RightHand
							{
								OFFSET -3.36504 -0.00000 0.00000
								CHANNELS 3 Zrotation Yrotation Xrotation
								JOINT RightFingerBase
								{
									OFFSET 0 0 0
									CHANNELS 3 Zrotation Yrotation Xrotation
									JOINT RightHandIndex1
									{
										OFFSET -0.62044 -0.00000 0.00000
										CHANNELS 3 Zrotation Yrotation Xrotation
										End Site
										{
											OFFSET -0.50022 -0.00000 0.00000
										}
									}
								}
								JOINT RThumb
								{
									OFFSET 0 0 0
									CHANNELS 3 Zrotation Yrotation Xrotation
									End Site
									{
										OFFSET -0.50786 -0.00000 0.50786
									}
								}
							}
						}
					}
				}
			}
		}
	}
}
MOTION
Frames: 15
Frame Time: .0083333
8.4119 16.6057 -2.7645 -4.4947 5.8201 3.6833 0.0000 0.0000 0.0000 -10.8438 6.7449 -9.3569 10.9613 17.9161 62.6559 -0.4236 11.4728 -3.3694 0.6052 -4.9796 -13.8504 0.0000 0.0000 0.0000 28.5485 7.3370 -23.7120 -3.2240 -11.0491 32.4455 -0.2481 8.3338 -9.9074 -0.2942 3.4876 -9.6393 1.6963 -3.2718 -4.8457 5.0712 -4.5167 -1.6024 4.0064 -2.2570 1.3423 -10.6093 -1.5547 -22.2140 8.2908 -0.5470 17.8843 4.5770 -0.0363 9.3390 0.0000 0.0000 0.0000 -86.3635 -4.3126 44.4281 22.4951 -33.5321 -6.8574 -0.0000 0.0000 -8.2478 18.0125 -26.6226 -8.2901 -7.1250 0.0000 -0.0000 -7.1673 2.3754 6.9191 0.0000 0.0000 0.0000 82.4321 -16.6856 10.9892 -8.8307 14.8903 -1.1562 0.0000 0.0000 5.0639 -28.8901 -20.2264 10.8009 7.1250 -0.0000 -0.0000 -0.4440 -52.8017 0.0852
8.3956 16.6455 -2.5875 -4.2206 5.6847 3.8433 0.0000 0.0000 0.0000 -11.3005 6.2472 -11.2476 11.5555 18.1964 64.5729 -0.5000 12.4270 -3.9806 0.2711 -3.3491 -9.2523 0.0000 0.0000 0.0000 28.5053 7.0472 -22.8967 -3.1164 -10.8811 31.8800 -0.2496 8.4703 -9.9792 -0.3228 3.6521 -10.0999 1.2572 -3.0700 -4.8544 4.9413 -4.2243 -1.6313 4.1365 -2.1111 1.3219 -10.6408 -1.7420 -22.0582 8.3952 -0.8286 17.6874 4.5728 -0.1576 9.2738 -0.0000 0.0000 0.0000 -86.4925 -3.9207 44.3994 21.9007 -32.8646 -6.5319 -0.0000 0.0000 -8.3447 16.9264 -27.4766 -7.9928 -7.1250 0.0000 -0.0000 -7.8937 1.6871 7.7323 -0.0000 0.0000 0.0000 82.4860 -16.2873 12.0290 -8.8210 14.8747 -1.1537 0.0000 0.0000 3.2283 -29.8932 -18.6261 10.4041 7.1250 -0.0000 -0.0000 -1.7635 -51.2159 0.2701
8.3771 16.6798 -2.4119 -3.7596 5.6040 4.0552 0.0000 0.0000 0.0000 -11.9874 5.6021 -13.1120 12.0434 18.4089 66.1263 -0.5938 13.5056 -4.6395 0.0536 -1.4944 -4.1103 0.0000 0.0000 0.0000 28.2468 6.6931 -22.1927 -3.0260 -10.7370 31.3980 -0.2643 8.7321 -10.2761 -0.3291 3.6871 -10.1981 0.4987 -2.9705 -5.0042 4.8740 -4.0626 -1.6029 4.4942 -2.0329 1.4721 -10.9879 -1.9360 -21.9417 8.6887 -1.0526 17.4561 4.6967 -0.2517 9.2008 0.0000 -0.0000 0.0000 -86.7884 -3.5019 44.8166 20.8680 -31.6740 -5.9805 -0.0000 0.0000 -6.1266 20.4449 -28.3473 -10.0377 -7.1250 0.0000 -0.0000 -5.9031 0.1873 5.9153 0.0000 -0.0000 0.0000 82.1624 -16.0717 14.7395 -9.1374 15.3792 -1.2363 0.0000 0.0000 0.2922 -31.3643 -19.9791 11.7647 7.1250 -0.0000 -0.0000 -3.0882 -53.0166 0.6095
8.3716 16.7063 -2.2280 -3.8299 5.2670 4.0307 0.0000 0.0000 0.0000 -12.0353 5.3523 -14.7487 12.4607 18.5787 67.4419 -0.5090 12.8055 -7.6115 0.4427 -4.2691 -11.8350 0.0000 0.0000 0.0000 28.5722 6.6762 -21.1375 -2.9473 -10.6093 30.9732 -0.2841 8.7844 -10.5554 -0.3024 3.5360 -9.7746 0.5555 -2.6212 -5.2495 4.8394 -3.6173 -1.3642 4.4395 -1.8137 1.8155 -11.5904 -2.3246 -21.6943 9.1263 -1.4972 16.9443 4.8751 -0.4490 9.0385 0.0000 -0.0000 0.0000 -87.0002 -3.3364 45.2945 20.2150 -30.9006 -5.6414 -0.0000 0.0000 -5.3105 21.0417 -28.4577 -10.3877 -7.1250 0.0000 -0.0000 -5.5656 -0.0395 5.5958 0.0000 -0.0000 0.0000 81.8181 -15.9672 18.7011 -9.7367 16.3266 -1.4000 0.0000 -0.0000 -4.0537 -32.8234 -20.8542 12.9324 7.1250 -0.0000 -0.0000 -4.5299 -54.3089 1.0379
8.3679 16.7387 -2.0382 -3.4842 4.9674 4.0139 0.0000 0.0000 0.0000 -12.6240 4.9550 -16.2076 12.7850 18.7031 68.4563 -0.5982 13.6712 -7.0265 0.0095 -0.6283 -1.7264 0.0000 0.0000 0.0000 28.3888 6.5311 -20.0958 -2.8738 -10.4879 30.5717 -0.2992 8.8536 -10.7768 -0.3355 3.7222 -10.2963 -0.1898 -2.7332 -5.1618 4.7411 -3.7519 -0.7366 4.7357 -1.8991 2.4661 -10.4323 -2.2017 -23.9273 8.5977 -1.3631 17.2526 4.5443 -0.3301 9.5079 -0.0000 0.0000 0.0000 -86.9114 -3.8989 44.5039 19.6848 -30.2607 -5.3716 -0.0000 0.0000 -5.3992 20.7942 -28.4704 -10.2610 -7.1250 0.0000 -0.0000 -5.7126 -0.0051 5.7417 -0.0000 0.0000 0.0000 81.4477 -14.4228 22.7111 -10.1548 16.9814 -1.5199 0.0000 -0.0000 -7.2294 -32.9354 -18.4369 11.5783 7.1250 -0.0000 -0.0000 -4.9299 -51.5777 0.8003
8.3511 16.7707 -1.8680 -3.0583 4.8046 4.1442 0.0000 0.0000 0.0000 -13.2963 4.2369 -17.8725 13.0543 18.8017 69.2940 -0.4408 12.8829 -10.5971 0.4310 -4.2129 -11.6764 0.0000 0.0000 0.0000 28.1194 6.6658 -19.1829 -2.7835 -10.3360 30.0719 -0.3424 8.6209 -11.2456 -0.3966 4.0433 -11.1985 -0.6234 -2.2395 -4.7823 4.6473 -3.0238 -1.6337 4.9733 -1.5121 1.2820 -11.7405 -2.5389 -20.8578 9.1099 -1.8161 16.4094 4.8277 -0.6194 8.7472 -0.0000 0.0000 0.0000 -87.2505 -1.6849 45.9334 19.3233 -29.8184 -5.1906 -0.0000 0.0000 -5.5884 20.2581 -28.2696 -9.9154 -7.1250 0.0000 -0.0000 -6.0040 0.3018 6.0054 -0.0000 0.0000 0.0000 81.2606 -15.8167 20.6037 -10.4480 17.4372 -1.6066 0.0000 -0.0000 -2.7084 -27.7968 -18.6948 9.5908 7.1250 -0.0000 -0.0000 0.3797 -50.9123 -0.0553
8.3371 16.7970 -1.7199 -3.2357 4.6320 4.3247 0.0000 0.0000 0.0000 -13.1787 3.6937 -19.9042 13.2874 18.8835 70.0158 -0.3787 12.5016 -11.2783 0.3700 -3.9070 -10.8150 0.0000 0.0000 0.0000 28.5278 7.2256 -18.3056 -2.6869 -10.1701 29.5295 -0.3855 8.0211 -11.6087 -0.3409 3.7519 -10.3797 -0.5157 -1.9463 -4.6825 4.6384 -2.6392 -1.5172 4.9291 -1.3208 1.3056 -11.8783 -2.7860 -21.4781 9.1921 -2.0616 16.5058 4.8545 -0.7236 8.9201 -0.0000 -0.0000 0.0000 -87.1585 -1.6238 46.4893 18.9395 -29.3434 -5.0011 -0.0000 0.0000 -5.8632 19.5771 -28.0382 -9.4903 -7.1250 0.0000 -0.0000 -6.3794 0.6634 6.3447 -0.0000 -0.0000 0.0000 81.0842 -15.0102 21.5390 -10.6765 17.7906 -1.6757 0.0000 -0.0000 -2.7511 -28.5473 -19.1099 10.0987 7.1250 -0.0000 -0.0000 -0.3051 -51.5052 0.0489
8.3371 16.8325 -1.5388 -3.2601 4.3770 4.3468 0.0000 0.0000 0.0000 -13.3451 3.4571 -21.3890 13.3655 18.9102 70.2569 -0.3608 12.3358 -11.3246 0.1666 -2.6294 -7.2487 0.0000 0.0000 0.0000 28.7380 7.0616 -17.2286 -2.5831 -9.9875 28.9362 -0.3962 8.0637 -11.7522 -0.2808 3.4082 -9.4173 -0.3162 -1.6515 -4.8224 4.4658 -2.2603 -1.3542 4.6527 -1.1341 1.5029 -12.0612 -2.9091 -21.5505 9.5405 -2.2267 16.2451 4.9805 -0.7700 8.8694 0.0000 0.0000 0.0000 -86.9596 -1.2381 46.6819 18.6813 -29.0208 -4.8753 -0.0000 0.0000 -5.7694 19.1661 -27.7375 -9.1890 -7.1250 0.0000 -0.0000 -6.5900 1.0435 6.5123 0.0000 0.0000 0.0000 81.1555 -14.1545 22.8221 -10.6907 17.8127 -1.6801 0.0000 -0.0000 -4.4188 -30.5817 -19.1870 10.9913 7.1250 -0.0000 -0.0000 -2.3874 -51.9731 0.4101
8.3516 16.8717 -1.3225 -2.8969 3.8631 4.2178 0.0000 0.0000 0.0000 -14.1438 3.3130 -22.2027 13.3517 18.9055 70.2143 -0.2436 11.9099 -13.0204 0.2733 -3.3629 -9.2907 0.0000 0.0000 0.0000 28.4789 6.1477 -15.9460 -2.4553 -9.7562 28.1907 -0.3726 8.8522 -11.6893 -0.2678 3.3288 -9.1956 -0.4674 -1.3598 -5.0437 4.2219 -1.8683 -1.2110 4.5027 -0.9419 1.7378 -12.1053 -2.9800 -21.3344 9.5731 -2.3307 15.9876 4.9764 -0.8195 8.7573 -0.0000 0.0000 0.0000 -86.8726 -0.3949 46.5833 18.5140 -28.8103 -4.7944 -0.0000 0.0000 -5.2467 18.8419 -27.2276 -8.8738 -7.1250 0.0000 -0.0000 -6.7298 1.6199 6.5828 -0.0000 0.0000 0.0000 81.2710 -13.1096 23.2927 -10.3501 17.2854 -1.5774 0.0000 -0.0000 -4.9703 -30.7414 -20.1676 11.5876 7.1250 -0.0000 -0.0000 -2.3990 -53.1027 0.4784
8.3713 16.9058 -1.0953 -2.2348 3.2796 4.0238 0.0000 0.0000 0.0000 -15.3729 3.1268 -22.6919 13.2452 18.8689 69.8853 -0.1279 11.4694 -14.3565 0.3685 -3.8992 -10.7933 0.0000 0.0000 0.0000 27.8029 4.9765 -14.6648 -2.3477 -9.5556 27.5494 -0.3396 10.0068 -11.6937 -0.2373 3.1351 -8.6552 -0.9085 -1.0945 -5.2718 3.9133 -1.4919 -1.0794 4.4522 -0.7594 1.9726 -12.0644 -3.1027 -21.1258 9.3271 -2.4890 16.0424 4.8601 -0.9227 8.7550 -0.0000 0.0000 0.0000 -86.8629 0.5872 46.4029 18.3148 -28.5583 -4.6987 -0.0000 0.0000 -4.6593 18.4839 -26.9590 -8.6175 -7.1250 0.0000 -0.0000 -6.9168 1.9546 6.7266 -0.0000 0.0000 0.0000 81.1727 -12.4031 23.7839 -10.2783 17.1738 -1.5561 0.0000 -0.0000 -4.1798 -32.3314 -19.3684 11.8548 7.1250 -0.0000 -0.0000 -4.1943 -52.5209 0.7775
8.3425 16.9012 -0.9755 -3.3272 3.0629 4.5337 0.0000 0.0000 0.0000 -14.0125 2.5114 -25.5008 13.3630 18.9093 70.2492 -0.0830 10.8224 -14.0847 0.2070 -2.9295 -8.0826 0.0000 0.0000 0.0000 29.2997 6.3805 -14.0998 -2.2764 -9.4196 27.1169 -0.4429 8.7580 -12.4903 -0.2474 3.2007 -8.8382 0.0162 -0.8332 -5.2247 4.1255 -1.1886 -1.3055 4.1718 -0.5975 1.6735 -11.9810 -3.2477 -20.9400 9.2116 -2.7060 15.9024 4.7708 -1.0340 8.6979 0.0000 -0.0000 0.0000 -86.6770 1.3277 46.2676 18.1719 -28.3767 -4.6307 -0.0000 0.0000 -4.4740 17.6626 -26.4624 -8.0759 -7.1250 0.0000 -0.0000 -7.3629 2.5951 7.0814 0.0000 -0.0000 0.0000 81.1158 -11.5705 23.5972 -10.2922 17.1953 -1.5602 0.0000 -0.0000 -1.9325 -31.4046 -21.1988 12.4492 7.1250 -0.0000 -0.0000 -2.9341 -54.3939 0.6777
8.3289 16.8951 -0.8300 -3.6674 2.7408 4.8769 0.0000 0.0000 0.0000 -13.6096 1.9872 -27.7514 13.3603 18.9084 70.2411 -0.0077 10.3201 -14.5748 0.1102 -2.1407 -5.8946 0.0000 0.0000 0.0000 29.9262 7.0189 -13.5680 -2.2416 -9.3521 26.9031 -0.5162 8.0610 -13.1581 -0.3295 3.6890 -10.2033 0.2690 -0.6212 -5.2433 4.1512 -0.9156 -1.4185 4.0740 -0.4579 1.5440 -12.0310 -3.3219 -20.7794 9.2555 -2.8063 15.5953 4.7728 -1.0794 8.5789 -0.0000 0.0000 0.0000 -86.5331 2.1141 45.9406 18.0533 -28.2254 -4.5744 -0.0000 0.0000 -4.0649 17.4931 -26.4220 -7.9833 -7.1250 0.0000 -0.0000 -7.4612 2.6633 7.1683 -0.0000 0.0000 0.0000 80.9177 -10.6620 23.8803 -10.3453 17.2779 -1.5760 0.0000 -0.0000 -0.8853 -29.4141 -21.2944 11.5713 7.1250 -0.0000 -0.0000 -0.7761 -54.0842 0.1733
8.3321 16.8848 -0.6694 -3.5595 2.4780 5.1702 0.0000 0.0000 0.0000 -13.9023 1.3236 -29.5799 13.2907 18.8846 70.0259 0.0243 10.1810 -14.8829 0.0561 -1.5289 -4.2054 0.0000 0.0000 0.0000 29.9712 6.7857 -13.2637 -2.2181 -9.3064 26.7584 -0.5702 7.9939 -13.7406 -0.4857 4.4687 -12.3992 0.2019 -0.4541 -5.2155 4.0588 -0.6804 -1.5906 4.0315 -0.3369 1.3345 -12.4120 -3.3188 -20.3040 9.6731 -2.8034 15.0570 4.9691 -1.0620 8.3269 0.0000 -0.0000 0.0000 -86.3271 3.0895 46.1499 17.8895 -28.0155 -4.4972 -0.0000 0.0000 -4.1230 18.6847 -27.0982 -8.7575 -7.1250 0.0000 -0.0000 -6.8106 1.7787 6.6434 0.0000 -0.0000 0.0000 80.7257 -9.9940 24.6385 -10.5338 17.5702 -1.6324 0.0000 -0.0000 -0.7896 -26.5244 -24.7206 11.7899 7.1250 -0.0000 -0.0000 3.3181 -57.1769 -0.9905
8.3428 16.8812 -0.4992 -3.4358 2.1078 5.4576 0.0000 0.0000 0.0000 -14.3389 0.7415 -31.1059 13.0869 18.8133 69.3951 -0.0069 10.4206 -14.7322 0.0594 -1.5731 -4.3272 0.0000 0.0000 0.0000 29.9023 6.4133 -13.0303 -2.2145 -9.2993 26.7362 -0.5939 8.3280 -14.0572 -0.5608 4.7968 -13.3299 0.3044 -0.1763 -5.2954 3.8467 -0.3095 -1.7019 3.7758 -0.1495 1.2374 -12.6482 -3.3510 -20.0035 10.0718 -2.8747 14.6814 5.1291 -1.0719 8.1679 -0.0000 0.0000 0.0000 -85.7484 3.9772 47.4309 17.7739 -27.8667 -4.4431 -0.0000 0.0000 -5.3469 19.4114 -27.0220 -9.0957 -7.1250 0.0000 -0.0000 -6.3689 1.7308 6.2125 -0.0000 0.0000 0.0000 80.6602 -9.3237 25.3563 -10.6721 17.7839 -1.6744 0.0000 -0.0000 -0.6936 -26.1271 -23.2842 10.9725 7.1250 -0.0000 -0.0000 3.2674 -55.5593 -0.8474
8.3509 16.8884 -0.3264 -3.4948 1.6841 5.6141 0.0000 0.0000 0.0000 -14.4810 0.2008 -32.4177 12.7906 18.7053 68.4739 0.0348 10.2942 -15.1989 0.1650 -2.6167 -7.2135 0.0000 0.0000 0.0000 30.0270 6.2541 -12.4680 -2.2061 -9.2828 26.6841 -0.6219 8.8191 -14.4449 -0.4600 4.3509 -12.0660 0.5767 0.0997 -5.2696 3.6896 0.0504 -1.7760 3.4805 0.0316 1.1243 -12.6593 -3.4371 -20.1046 10.1534 -2.9977 14.7618 5.1462 -1.1211 8.2293 -0.0000 0.0000 0.0000 -85.4816 5.0223 47.4816 17.6597 -27.7192 -4.3898 -0.0000 0.0000 -5.3172 17.2315 -25.6729 -7.6529 -7.1250 0.0000 -0.0000 -7.5555 3.4647 7.1485 -0.0000 0.0000 0.0000 80.3716 -8.8078 26.8684 -10.9053 18.1430 -1.7463 0.0000 -0.0000 -1.0065 -28.0904 -22.5344 11.5602 7.1250 -0.0000 -0.0000 0.9389 -55.1657 -0.2344
